<svg width="140" height="27" viewBox="0 0 140 27" fill="none" xmlns="http://www.w3.org/2000/svg">
<g clip-path="url(#clip0_241_881)">
<mask id="mask0_241_881" style="mask-type:luminance" maskUnits="userSpaceOnUse" x="31" y="8" width="109" height="11">
<path d="M139.642 8.16418H31.0879V18.2125H139.642V8.16418Z" fill="white"/>
</mask>
<g mask="url(#mask0_241_881)">
<path d="M31.0876 17.9068V8.43546C31.0862 8.40146 31.0917 8.36747 31.1036 8.33559C31.1154 8.30372 31.1335 8.27456 31.1567 8.24987C31.1813 8.22261 31.2112 8.20093 31.2446 8.18605C31.278 8.17125 31.314 8.16363 31.3505 8.16363H34.5821C35.3557 8.14539 36.108 8.42117 36.6901 8.93633C36.966 9.16529 37.1877 9.45375 37.3389 9.78053C37.4901 10.1073 37.567 10.4641 37.5639 10.8248C37.566 11.3154 37.3882 11.7894 37.065 12.1555C36.7565 12.5336 36.3799 12.8491 35.9549 13.0852C37.1937 13.6194 37.8133 14.3968 37.8136 15.4175C37.8204 15.7928 37.744 16.1648 37.5899 16.5064C37.4359 16.848 37.2082 17.1504 36.9236 17.3917C36.3362 17.9181 35.5728 18.1994 34.7878 18.1786H31.3484C31.2773 18.1796 31.2084 18.1542 31.1546 18.1072C31.1095 18.0505 31.0858 17.9795 31.0876 17.9068ZM33.2532 12.2248H34.335C34.4631 12.2268 34.5902 12.2011 34.7076 12.1493C34.825 12.0975 34.9301 12.0208 35.0156 11.9244C35.1103 11.8288 35.1848 11.7148 35.2348 11.5894C35.2849 11.464 35.3093 11.3297 35.3067 11.1945C35.3099 11.0655 35.2855 10.9374 35.2353 10.8188C35.185 10.7001 35.1101 10.5938 35.0156 10.507C34.928 10.4142 34.8222 10.341 34.7051 10.2917C34.5879 10.2424 34.4618 10.2183 34.335 10.2209H33.2532V12.2248ZM33.2532 16.1304H34.5151C34.6449 16.1316 34.7736 16.1055 34.8929 16.0537C35.0123 16.002 35.1196 15.9258 35.2083 15.83C35.3061 15.7331 35.3836 15.6172 35.436 15.4894C35.4885 15.3615 35.5149 15.2243 35.5135 15.0859C35.5129 14.9484 35.4799 14.8131 35.4172 14.6912C35.3544 14.5692 35.2638 14.4641 35.1528 14.3846C34.9394 14.1911 34.6626 14.0841 34.3758 14.0842H33.2532V16.1304Z" fill="white"/>
<path d="M42.7853 17.9072V8.43589C42.784 8.40167 42.7897 8.3676 42.802 8.33566C42.8142 8.30371 42.8328 8.2747 42.8566 8.2503C42.8823 8.22297 42.9132 8.20121 42.9475 8.18641C42.9818 8.17154 43.0188 8.16399 43.0561 8.16406H48.949C49.0188 8.16948 49.0843 8.19982 49.1339 8.24964C49.1836 8.29946 49.214 8.36548 49.2198 8.43589V9.99549C49.2199 10.0331 49.2124 10.0702 49.1977 10.1047C49.1831 10.1392 49.1615 10.1702 49.1344 10.196C49.1099 10.22 49.0809 10.2387 49.049 10.251C49.0172 10.2633 48.9831 10.2689 48.949 10.2673H45.0064V12.0417H48.2527C48.3224 12.0471 48.388 12.0774 48.4376 12.1273C48.4872 12.1771 48.5176 12.2431 48.5234 12.3135V13.8731C48.5235 13.9106 48.5161 13.9478 48.5013 13.9823C48.4867 14.0168 48.4651 14.0479 48.438 14.0736C48.4136 14.0977 48.3846 14.1165 48.3527 14.1289C48.3209 14.1413 48.2868 14.1469 48.2527 14.1454H45.0064V16.0769H48.949C49.0188 16.0822 49.0844 16.1125 49.1341 16.1623C49.1837 16.2121 49.2141 16.2782 49.2198 16.3487V17.9083C49.2198 17.9458 49.2124 17.983 49.1977 18.0175C49.183 18.0519 49.1614 18.083 49.1344 18.1087C49.1099 18.1327 49.0808 18.1514 49.049 18.1637C49.0171 18.176 48.9831 18.1815 48.949 18.1801H43.0561C42.9832 18.1812 42.9124 18.1559 42.8566 18.1087C42.8093 18.0526 42.784 17.9809 42.7853 17.9072Z" fill="white"/>
<path d="M54.7761 17.9072V8.43589C54.7747 8.40167 54.7804 8.3676 54.7926 8.33566C54.8049 8.30371 54.8234 8.2747 54.8472 8.2503C54.8728 8.22297 54.9037 8.20128 54.9379 8.18641C54.9722 8.17161 55.009 8.16399 55.0462 8.16406H60.9392C61.0088 8.16963 61.0743 8.20004 61.1238 8.24979C61.1733 8.29961 61.2036 8.36555 61.2094 8.43589V9.99549C61.2096 10.0331 61.202 10.0702 61.1874 10.1047C61.1727 10.1392 61.1511 10.1702 61.124 10.196C61.0997 10.2199 61.0707 10.2387 61.0389 10.2509C61.0072 10.2632 60.9732 10.2688 60.9392 10.2673H56.9961V12.0417H60.2423C60.312 12.0472 60.3774 12.0776 60.4269 12.1274C60.4764 12.1772 60.5067 12.2432 60.5125 12.3135V13.8731C60.5127 13.9106 60.5051 13.9478 60.4905 13.9823C60.4758 14.0168 60.4542 14.0479 60.4271 14.0736C60.4028 14.0976 60.3738 14.1164 60.3421 14.1287C60.3103 14.1411 60.2763 14.1468 60.2423 14.1454H56.9961V16.0769H60.9392C61.0089 16.0823 61.0744 16.1126 61.1239 16.1625C61.1734 16.2123 61.2037 16.2783 61.2094 16.3487V17.9083C61.2095 17.9458 61.202 17.983 61.1873 18.0175C61.1726 18.0519 61.1511 18.083 61.124 18.1087C61.0996 18.1327 61.0706 18.1513 61.0389 18.1636C61.0071 18.1758 60.9732 18.1815 60.9392 18.1801H55.0462C54.9736 18.1812 54.903 18.1558 54.8472 18.1087C54.8 18.0526 54.7747 17.9809 54.7761 17.9072Z" fill="white"/>
<path d="M67.3513 18.0182L64.6863 8.67124C64.6715 8.63248 64.6663 8.59064 64.6712 8.54946C64.6762 8.50821 64.6911 8.46887 64.7146 8.4348C64.7414 8.40117 64.7761 8.37472 64.8154 8.35779C64.8547 8.34079 64.8976 8.33383 64.9402 8.3375H66.59C66.6485 8.33361 66.7063 8.3512 66.753 8.3871C66.7995 8.423 66.8317 8.47466 66.8434 8.53261L68.0561 13.2479H68.1126L70.2986 8.35178C70.3197 8.30562 70.3536 8.26665 70.3962 8.23939C70.4387 8.21221 70.4881 8.19799 70.5384 8.19843H70.7924C70.8436 8.19308 70.8951 8.20532 70.9385 8.23309C70.9821 8.26093 71.015 8.30269 71.0322 8.35178L73.2181 13.2479H73.2746L74.4875 8.53261C74.4991 8.47466 74.5317 8.42293 74.5782 8.38703C74.6246 8.3512 74.6826 8.33361 74.7414 8.3375H76.3909C76.4337 8.33383 76.4765 8.34079 76.5157 8.35779C76.5556 8.37472 76.5897 8.40117 76.6165 8.4348C76.6405 8.46894 76.655 8.50829 76.66 8.54946C76.6651 8.59064 76.6593 8.6324 76.6448 8.67124L73.9797 18.0182C73.9703 18.0775 73.9391 18.1308 73.892 18.1671C73.8441 18.2034 73.7853 18.2197 73.7258 18.2128H73.5002C73.4502 18.2133 73.4009 18.1992 73.3581 18.1721C73.316 18.145 73.2819 18.1061 73.2609 18.06L70.6813 12.3701H70.6389L68.0733 18.059C68.0521 18.105 68.0183 18.1439 67.9757 18.171C67.9332 18.1981 67.8838 18.2123 67.8336 18.2118H67.6079C67.5486 18.2194 67.4887 18.2035 67.4409 18.1674C67.393 18.1313 67.3609 18.0778 67.3513 18.0182Z" fill="white"/>
<path d="M79.5508 16.7658C78.6288 15.82 78.1123 14.5461 78.1123 13.219C78.1123 11.892 78.6288 10.6181 79.5508 9.67223C80.2457 8.96746 81.1328 8.48696 82.0983 8.29148C83.0645 8.09593 84.0663 8.19425 84.9767 8.57393C85.887 8.95361 86.6661 9.59765 87.2138 10.4245C87.7622 11.2513 88.0552 12.2238 88.0559 13.2187C88.0668 13.879 87.9442 14.5344 87.6947 15.1446C87.4444 15.7548 87.0738 16.3066 86.6037 16.7658C85.6592 17.6933 84.3942 18.2123 83.0769 18.2123C81.7603 18.2123 80.4945 17.6933 79.5508 16.7658ZM80.3247 13.2187C80.3276 13.8628 80.5511 14.486 80.9573 14.9823C81.3635 15.4786 81.9278 15.8172 82.5539 15.9405C83.1799 16.0638 83.8284 15.9642 84.3898 15.6586C84.9505 15.353 85.3901 14.8603 85.6317 14.2645C85.874 13.6687 85.9037 13.0065 85.7173 12.3908C85.5301 11.7751 85.1377 11.2439 84.606 10.8878C84.075 10.5315 83.4381 10.3724 82.8034 10.4374C82.1694 10.5023 81.5768 10.7874 81.127 11.244C80.8673 11.5007 80.662 11.8082 80.5242 12.1478C80.3864 12.4873 80.3182 12.8518 80.3247 13.2187Z" fill="white"/>
<path d="M90.4062 17.9405V8.46914C90.4047 8.43485 90.4105 8.40063 90.4221 8.36854C90.4345 8.33652 90.4533 8.30744 90.4773 8.28296C90.5027 8.25571 90.5338 8.23395 90.5679 8.21915C90.602 8.20427 90.6383 8.19673 90.676 8.19673H94.9166C95.3236 8.19079 95.7269 8.26897 96.1026 8.4265C96.4784 8.58403 96.8179 8.81761 97.1015 9.11273C97.3931 9.39211 97.6245 9.72966 97.7805 10.1039C97.9372 10.4782 98.0148 10.8812 98.009 11.2874C98.0133 11.914 97.808 12.5238 97.4272 13.0183C97.0355 13.5341 96.5103 13.9303 95.909 14.1628L97.8523 17.7966C97.8799 17.8391 97.8951 17.8888 97.8951 17.9397C97.8951 17.9905 97.8799 18.0403 97.8523 18.0827C97.8284 18.1251 97.7935 18.1598 97.7507 18.1825C97.7079 18.2053 97.6601 18.2152 97.6115 18.2112H95.7269C95.6805 18.2141 95.6348 18.2035 95.5949 18.1807C95.5543 18.1579 95.5216 18.1239 95.4999 18.0827L93.6153 14.2913H92.6331V17.9405C92.6324 17.9757 92.6244 18.0104 92.6099 18.0424C92.5947 18.0744 92.5736 18.1031 92.5482 18.1266C92.5258 18.1543 92.4975 18.1764 92.4655 18.1913C92.4336 18.2061 92.3988 18.2133 92.3633 18.2123H90.6753C90.639 18.2159 90.602 18.2113 90.5679 18.199C90.5338 18.1866 90.5026 18.1666 90.4765 18.1407C90.4511 18.1147 90.4316 18.0833 90.4192 18.0486C90.4069 18.014 90.4018 17.9771 90.4054 17.9405H90.4062ZM92.6331 12.4752H94.7331C94.8753 12.4764 95.0167 12.4463 95.1459 12.387C95.2757 12.3277 95.3918 12.2407 95.4846 12.132C95.5891 12.027 95.6718 11.9021 95.7276 11.7645C95.7835 11.627 95.8118 11.4795 95.811 11.3308C95.8009 11.0453 95.6841 10.7743 95.4846 10.5725C95.2844 10.3708 95.0153 10.2533 94.7331 10.2439H92.6331V12.4752Z" fill="white"/>
<path d="M101.812 17.8685V8.541C101.812 8.49572 101.82 8.45088 101.838 8.40905C101.854 8.36721 101.88 8.32918 101.912 8.29724C101.944 8.26529 101.981 8.24002 102.023 8.2228C102.064 8.20565 102.108 8.19701 102.153 8.19723H103.819C103.864 8.19649 103.908 8.20499 103.949 8.22228C103.991 8.2395 104.029 8.26522 104.06 8.29775C104.092 8.32918 104.118 8.36706 104.135 8.4089C104.152 8.45074 104.16 8.49572 104.16 8.541V12.3039L107.321 8.34003C107.351 8.29643 107.392 8.26075 107.439 8.23584C107.486 8.211 107.538 8.19759 107.591 8.19671H109.385C109.446 8.19393 109.506 8.21042 109.556 8.24375C109.607 8.27716 109.647 8.32574 109.67 8.38289C109.698 8.43674 109.71 8.49785 109.705 8.55874C109.7 8.61962 109.678 8.67772 109.641 8.72608L106.31 12.9179L109.94 17.6675C109.977 17.7164 109.998 17.7755 110 17.8369C110.003 17.8983 109.987 17.9589 109.954 18.0107C109.932 18.0678 109.892 18.1163 109.841 18.1496C109.79 18.183 109.73 18.1995 109.67 18.1969H107.705C107.657 18.2025 107.61 18.1962 107.565 18.1788C107.52 18.1614 107.48 18.1333 107.449 18.097L104.161 13.6043V17.868C104.162 17.9133 104.153 17.9582 104.136 18.0001C104.119 18.0419 104.094 18.0797 104.061 18.1112C104.03 18.1437 103.992 18.1693 103.951 18.1865C103.909 18.2037 103.864 18.2121 103.819 18.2112H102.155C102.11 18.2115 102.065 18.2029 102.023 18.1858C101.982 18.1687 101.944 18.1435 101.912 18.1115C101.88 18.0797 101.856 18.0417 101.838 17.9999C101.821 17.958 101.812 17.9132 101.812 17.868L101.812 17.8685Z" fill="white"/>
<path d="M113.358 17.9072V8.43589C113.36 8.40043 113.369 8.36555 113.384 8.33361C113.399 8.30159 113.421 8.27323 113.448 8.2503C113.472 8.2237 113.503 8.20246 113.535 8.18765C113.569 8.17285 113.604 8.1648 113.641 8.16406H115.417C115.453 8.16487 115.489 8.17293 115.522 8.18773C115.555 8.20253 115.585 8.22378 115.61 8.2503C115.637 8.27323 115.659 8.30159 115.674 8.33361C115.689 8.36555 115.698 8.40043 115.699 8.43589V17.9072C115.698 17.9428 115.689 17.9776 115.674 18.0096C115.659 18.0415 115.637 18.0699 115.61 18.0929C115.585 18.1194 115.555 18.1407 115.522 18.1555C115.489 18.1703 115.453 18.1782 115.417 18.179H113.643C113.606 18.1783 113.571 18.1703 113.538 18.1555C113.504 18.1407 113.474 18.1194 113.45 18.0929C113.423 18.0701 113.4 18.0418 113.385 18.0099C113.369 17.9778 113.36 17.9429 113.358 17.9072Z" fill="white"/>
<path d="M119.847 17.778L119.833 8.41726C119.832 8.38605 119.839 8.35513 119.851 8.32648C119.863 8.29783 119.881 8.27197 119.903 8.25065C119.929 8.22405 119.96 8.20295 119.994 8.18859C120.027 8.17423 120.064 8.1669 120.101 8.16712H120.453L126.074 13.5086H126.088V8.56746C126.087 8.53405 126.092 8.50071 126.105 8.46957C126.116 8.43843 126.135 8.41023 126.158 8.38656C126.184 8.36004 126.214 8.33893 126.248 8.32457C126.282 8.31021 126.319 8.30289 126.356 8.30303H128.047C128.081 8.30201 128.116 8.30904 128.147 8.32347C128.179 8.33798 128.207 8.35952 128.229 8.38656C128.256 8.40927 128.276 8.43704 128.29 8.46811C128.305 8.49925 128.313 8.5331 128.314 8.56746V17.9282C128.314 17.9607 128.306 17.9926 128.291 18.0215C128.277 18.0504 128.256 18.0754 128.229 18.0948C128.207 18.1219 128.179 18.1434 128.147 18.1579C128.116 18.1724 128.081 18.1794 128.047 18.1784H127.821C127.788 18.1799 127.754 18.1745 127.722 18.1626C127.691 18.1507 127.662 18.1325 127.638 18.1091L122.073 12.5873H122.058V17.778C122.058 17.8146 122.05 17.8508 122.035 17.8843C122.021 17.9177 122 17.9479 121.973 17.9727C121.949 17.9961 121.92 18.0142 121.889 18.0261C121.857 18.0381 121.824 18.0434 121.79 18.0419H120.115C120.08 18.0411 120.046 18.0333 120.014 18.0189C119.983 18.0046 119.955 17.984 119.931 17.9584C119.906 17.9358 119.885 17.9081 119.87 17.8771C119.856 17.8461 119.848 17.8123 119.847 17.778Z" fill="white"/>
<path d="M132.594 16.7283C131.673 15.7804 131.158 14.5042 131.16 13.1757C131.163 11.8472 131.683 10.573 132.609 9.62888C133.062 9.15593 133.607 8.78196 134.21 8.53007C134.812 8.27817 135.459 8.15376 136.111 8.16445C136.715 8.16958 137.314 8.28791 137.876 8.51351C138.46 8.73808 139.002 9.06354 139.475 9.47553C139.509 9.49319 139.536 9.51905 139.557 9.55063C139.578 9.58228 139.59 9.61862 139.593 9.65628C139.595 9.69402 139.588 9.73175 139.573 9.76611C139.557 9.80048 139.533 9.83022 139.503 9.85257C138.46 10.2474 137.348 10.4231 136.235 10.3687C135.875 10.3651 135.519 10.4376 135.188 10.5817C134.858 10.7258 134.562 10.9383 134.318 11.2054C133.806 11.7318 133.518 12.4407 133.518 13.1791C133.518 13.9175 133.806 14.6264 134.318 15.1528C134.568 15.4138 134.868 15.6203 135.201 15.7595C135.532 15.8986 135.889 15.9676 136.249 15.962C136.668 15.9676 137.084 15.8918 137.476 15.7388V14.9297H136.606C136.536 14.9308 136.467 14.906 136.413 14.8598C136.39 14.836 136.372 14.8075 136.36 14.7763C136.348 14.7452 136.343 14.7118 136.345 14.6784V13.2971C136.339 13.2612 136.342 13.2246 136.354 13.1902C136.366 13.1558 136.384 13.1246 136.41 13.099C136.435 13.0734 136.466 13.0541 136.5 13.0426C136.535 13.031 136.571 13.0276 136.606 13.0327H139.377C139.409 13.0329 139.44 13.0406 139.469 13.0552C139.498 13.0698 139.523 13.0908 139.542 13.1167C139.569 13.1385 139.591 13.1662 139.605 13.1976C139.619 13.2291 139.626 13.2635 139.625 13.2981L139.639 17.0504C139.641 17.0939 139.631 17.137 139.612 17.1759C139.592 17.2149 139.564 17.2484 139.529 17.2735C139.419 17.3387 139.267 17.4223 139.073 17.5242C138.691 17.6936 138.294 17.8289 137.888 17.9288C137.309 18.0939 136.709 18.1784 136.107 18.18C135.455 18.1916 134.807 18.0689 134.203 17.8192C133.599 17.5697 133.052 17.1985 132.594 16.7283Z" fill="white"/>
</g>
<path fill-rule="evenodd" clip-rule="evenodd" d="M21.2081 6.90802L12.357 1.75611C11.957 1.52325 11.4645 1.52325 11.0645 1.75611L2.21333 6.90802C1.81179 7.14174 1.56431 7.57448 1.56431 8.04296V18.3339C1.56431 18.8023 1.81179 19.235 2.21333 19.4687L11.0645 24.6206C11.4645 24.8535 11.957 24.8535 12.357 24.6206L21.2081 19.4687C21.6097 19.235 21.8571 18.8023 21.8571 18.3339V8.04296C21.8571 7.57448 21.6097 7.14174 21.2081 6.90802ZM13.0033 0.621195C12.2032 0.155483 11.2183 0.155485 10.4182 0.621195L1.56707 5.77311C0.764001 6.24055 0.269043 7.10606 0.269043 8.04296V18.3339C0.269043 19.2707 0.764001 20.1362 1.56707 20.6037L10.4182 25.7556C11.2183 26.2213 12.2032 26.2213 13.0033 25.7556L21.8544 20.6037C22.6575 20.1362 23.1524 19.2707 23.1524 18.3339V8.04296C23.1524 7.10606 22.6575 6.24055 21.8544 5.77311L13.0033 0.621195Z" fill="white"/>
<path d="M17.4133 16.1524H6.00781V17.1152H17.4133V16.1524Z" fill="white"/>
<path d="M17.4133 14.231H6.00781V15.1938H17.4133V14.231Z" fill="white"/>
<path d="M17.4133 12.3094H6.00781V13.2722H17.4133V12.3094Z" fill="white"/>
<path d="M15.8109 10.3868H7.59131V11.3497H15.8109V10.3868Z" fill="white"/>
<path d="M13.6038 8.46527H10.1309V9.4281H13.6038V8.46527Z" fill="white"/>
</g>
<defs>
<clipPath id="clip0_241_881">
<rect width="140" height="26.3768" fill="white"/>
</clipPath>
</defs>
</svg>
